<?xml version="1.0" encoding="UTF-8" standalone="no"?>
<svg
   xmlns:dc="http://purl.org/dc/elements/1.1/"
   xmlns:cc="http://creativecommons.org/ns#"
   xmlns:rdf="http://www.w3.org/1999/02/22-rdf-syntax-ns#"
   xmlns:svg="http://www.w3.org/2000/svg"
   xmlns="http://www.w3.org/2000/svg"
   xmlns:sodipodi="http://sodipodi.sourceforge.net/DTD/sodipodi-0.dtd"
   xmlns:inkscape="http://www.inkscape.org/namespaces/inkscape"
   version="1.1"
   width="100%"
   height="100%"
   viewBox="0 0 850 700"
   preserveAspectRatio="xMinYMin meet"
   id="svg4243"
   inkscape:version="0.91 r13725"
   sodipodi:docname="text-ref.svg">
  <metadata
     id="metadata4298">
    <rdf:RDF>
      <cc:Work
         rdf:about="">
        <dc:format>image/svg+xml</dc:format>
        <dc:type
           rdf:resource="http://purl.org/dc/dcmitype/StillImage" />
        <dc:title></dc:title>
      </cc:Work>
    </rdf:RDF>
  </metadata>
  <sodipodi:namedview
     pagecolor="#ffffff"
     bordercolor="#666666"
     borderopacity="1"
     objecttolerance="10"
     gridtolerance="10"
     guidetolerance="10"
     inkscape:pageopacity="0"
     inkscape:pageshadow="2"
     inkscape:window-width="1383"
     inkscape:window-height="722"
     id="namedview4296"
     showgrid="false"
     inkscape:zoom="0.82418282"
     inkscape:cx="448.32544"
     inkscape:cy="360.50171"
     inkscape:window-x="381"
     inkscape:window-y="147"
     inkscape:window-maximized="0"
     inkscape:current-layer="svg4243" />
  <defs
     id="defs4245">
    <title
       id="title4247">A Whiteboard SVG Illustration</title>
  </defs>
  <g
     id="standard-attributes"
     style="fill:none;stroke:#1f75fe;stroke-width:4;stroke-linecap:round">
    <text
       x="50"
       y="50"
       font-size="18"
       font-weight="bold"
       id="text4250"
       style="font-weight:bold;font-size:18px;font-family:Helvetica, Arial, Sans;fill:#000000;stroke:none">TEXT-DRAWING FUNCTIONS</text>
    <text
       x="50"
       y="100"
       font-size="14.5"
       id="text4252"
       style="font-size:14.5px;font-family:Helvetica, Arial, Sans;fill:#000000;stroke:none">1. Note that multiple instances of particular characters are <tspan
   font-style="bold"
   id="tspan4254">not uniform</tspan>
.</text>
    <path
       d="m 76.22,179.4 5.1,-26.77 m -0.65,4.02 14.03,-5.47 m -14.28,15.94 12.61,-1.73 m 2.8,10.85 c 0.79,-12.38 8.9,-10.96 7.22,0.47 1.43,5.34 -7.51,5.65 -7.66,0.69 m 24.53,-8.41 c -0.06,17.42 6.14,17.7 8.05,-0.86 l -1.67,14 m 20.96,-2.19 2.91,-6.86 c 0.8,-16.2 16.24,-5.44 -0.19,0.46 4.81,-1.51 5.18,3.54 4.18,7.66 m 58.42,-24.57 c -17.03,-7.91 -17.77,7.06 -7.47,8.97 7.92,1.43 8.08,24.35 -9.22,13.19 m 41.32,-10.09 c -8.01,-2.76 -8.83,18.34 0.97,8.78 m 18.26,-2.66 c -1.4,-12.86 11.36,-12.4 7.55,0.08 0.02,5.66 -8.92,5.32 -7.67,1.18 m 24.84,4.36 2.19,-8.95 c 1.13,-16.14 15.44,-5.44 0.96,-1.39 4.26,-1.22 4.09,6.22 5.59,6.6 m 20.25,-10.74 q -3.16,13.45 -2.78,12.79 2.93,1.63 8.74,-0.71 m -6.62,-10.25 6.27,0.15 m -9.58,8.43 5.76,-1.29 m 40.61,7.14 1.13,-8.96 c 1.47,-3.52 1.59,-5.43 3.2,0.05 -0.01,8.65 2.42,14.05 2.89,9.94 m 0.19,-7.86 -3.97,2.76 m 22.52,1.84 0.77,-12.47 c 3.35,15.89 5.28,13.96 6.47,-1.3 m 21.74,2.41 -2.69,13.88 c 10.95,-3 13.42,-9.6 1.91,-15.73 m 70.44,-10.75 c -17.41,-7.48 -19.09,6.91 -5.07,10.57 8.45,0.62 6.52,21.92 -8.59,11.77 m 26.04,-10.9 q -5.64,12.22 -0.52,10.95 3.34,0.39 7.44,-0.75 m -6.04,-11.46 6.21,-2.23 m -7.23,7.69 6.76,-1.03 m 16.33,-3.06 c 2.89,-1.18 1.39,9.18 4.49,15.24 2.84,-4.87 5.25,-14 5.3,-15.87 m 17.81,-1.54 q -4.71,14.6 -3.06,11.61 2.92,-0.17 6.15,-0.45 m -6.61,-11.01 6.66,-0.33 m -7.6,8.52 5.01,-1.96 m 19.47,8.95 1.79,-13.33 c 2.14,15.46 3.51,11.99 5.26,-2.99 m 46.17,-11.96 c -0.65,13.76 10.52,13.7 10.82,2.94 l -1.12,23.23 c 0.23,2.76 -6.1,1.2 -7.37,-3.13 m 21.4,-10.88 q -4.99,12.66 -1.53,11.05 0.53,-0.28 6.04,-0.86 m -6.13,-11.71 5.08,-2.5 m -9.82,7.71 5.11,-0.89 m 21.03,14.03 0.85,-10.39 c 1.04,-6.43 1.37,-5.36 4.7,0 1.84,10.18 0.16,13.22 0.72,10.72 m -0.29,-6.98 -5.05,1.72 m 22.28,5.81 0.59,-6.91 c 2.19,-17 16.74,-4.5 0.26,-1.43 2.01,-1.2 5.46,5.64 5.98,6.17 m 37.64,-12.53 c -10.48,-2.78 -8.56,4.25 -2.8,5.55 4.84,1.65 3.86,10.46 -5.5,5.53 m 43.56,1.64 4.53,-19.81 c 3.73,-10.58 3.99,-10.13 8.42,0.42 1.09,19.44 1.44,25.58 4.75,20.05 m -2.2,-15.9 -10.05,4.38 m 32.89,0.73 c -3.55,-1.09 -5.08,4.4 -6.17,11.8 1.79,-0.21 7.29,0.47 8.38,-4.05 0.33,-2.2 -1.47,-0.5 -1.57,0.33 m 14.18,-2.81 c -0.5,-13.43 11.46,-11.73 7.39,-0.54 0.09,7.8 -6.32,6.23 -7.82,-1.17 m 20.7,6.6 c 3.51,-3.52 4.02,3.49 -1.08,1.24 m 3.6,-2.73 c 3.18,-2.31 1.58,1.71 -0.39,-1.39 m 6.88,3.94 c 2.76,-3.31 1.91,3.29 -1.1,-1.04"
       id="path4256"
       inkscape:connector-curvature="0" />
    <path
       d="m 75.16,229.79 3.13,-26.02 m -3.07,2.8 12.73,-3.46 m -15.2,15.5 13.42,-1.17 m 8.63,8.09 c -1.22,-12.28 10.12,-11.96 6.67,-1.31 -0.79,6.38 -7.78,6.98 -8.76,0.61 m 29.18,-6.24 c 1.11,16.71 6.72,15.75 9.79,-0.51 l -0.71,13.68 m 13.9,0.71 2.14,-6.81 c 1.13,-17.83 15.26,-4.92 1.21,0.98 4.6,-1.88 5.14,6.11 6.47,8.32 m 58.54,-27.39 c -19.11,-6.31 -17.06,6.74 -7.32,9.6 7.21,0.75 8.13,22.93 -8.38,13.02 m 40.56,-10.47 c -9.77,-1.81 -9.02,18.61 2,8.74 m 16.4,-3.81 c -0.3,-11.69 9.26,-11.63 8.36,1.3 -0.67,5.12 -8.93,6.24 -8.72,-0.73 m 22.8,4.79 1.3,-8.03 c 0.92,-17.24 15.83,-4.18 0.14,1.45 2.57,-3.7 3.53,5.54 6.35,6.61 m 21.46,-15.12 q -4.46,14.1 -2.85,13.2 2.82,0.4 8.66,0.3 m -5.23,-9.64 6.29,-1.07 m -8.49,6.54 5.56,-1.07 m 41.6,7.45 0.78,-9.94 c 0.97,-5.02 3.76,-6.49 4.38,1.08 1.25,9.78 2.09,13.9 3.03,11.25 m -1.81,-8.42 -3.86,1.13 m 22.04,3.88 2.97,-11.72 c 1.22,13.84 5.28,13.61 5.42,-2.33 m 21.96,3.13 -2.38,12.98 c 9.3,-1.53 15.02,-10.37 1.2,-15.87 m 69.57,-9.23 c -18.99,-8.09 -16.87,7.95 -4.87,9.03 7.74,1.23 8.58,23.82 -9.82,13.11 m 26.69,-11.21 q -5.7,14.25 -0.98,13.21 0.62,1.59 6.26,0.35 m -6.73,-10.65 7.62,-1.34 m -9.22,7.28 7.14,0.17 m 18.83,-9.38 c 0.65,0.36 2.48,8.96 4.51,15.35 2.46,-3.75 3.87,-14.17 5.34,-15.56 m 18.4,-1.6 q -3.91,12.64 -2.51,12.69 0.82,1.64 6.88,-1.16 m -4.59,-10.47 6.76,-0.27 m -8.06,6.92 7.95,-1.79 m 14.1,8.82 2.16,-13.89 c 1.89,15.44 3.9,11.2 6.42,-0.54 m 42.1,-13.29 c 0.4,14.07 10.11,14.5 10.86,2.34 l -1.72,24.16 c 0.72,1.6 -6.32,1.65 -6.84,-3.01 m 20.86,-8.45 q -3.62,14.24 -0.51,11.18 2.12,1.04 6.83,-0.22 m -5.69,-10.9 7.22,0.33 m -7.77,6.66 7.13,-1.59 m 13.19,9.3 2.6,-10.97 c 1.25,-3.59 3.18,-3.55 2.92,-1.01 2.42,10.68 0.26,13.01 1.25,11.67 m -1.41,-6.72 -5.94,0.11 m 27.47,7.18 1.46,-7.39 c 1.81,-18.41 15.42,-5.21 0.18,-0.08 2.53,-2.33 3.82,5.78 5.41,7.76 m 33.98,-15.26 c -10.38,-4.4 -7.76,4.13 -4.11,6.2 5,0.2 3.2,10.31 -5.19,7.4 m 45.91,0.04 4.83,-19.42 c 2.05,-11.33 6.28,-9.84 8.18,1.43 1.02,19.17 0.61,26.82 5.21,20.9 m -0.85,-16.33 -9.24,3 m 30.43,0.14 c -3.09,0.03 -7.23,4.19 -6.42,11.98 2.19,0.76 5.69,1.29 6.34,-2.26 -1.29,-2.03 -2.24,-1.29 -3.04,-0.51 m 15.58,-4.39 c -1.02,-12 11.03,-11.78 8.66,-0.54 -1.2,7.78 -7.46,7.47 -6.47,-0.38 m 19.52,6.59 c 2.66,-4.18 2.46,3.51 -1.16,0.27 m 5.05,-2.34 c 3.23,-2.29 2.56,4.22 0.29,0.79 m 5.84,-0.73 c 1.88,-2.84 3.14,2.19 -0.19,0.35"
       id="path4258"
       inkscape:connector-curvature="0" />
    <path
       d="m 74.64,280.22 5.08,-25.84 m -3.15,4.1 11.58,-4.83 m -15.56,15.48 12.12,-2.23 m 8.34,7.67 c 1.45,-10.52 10.47,-12.2 6.7,-1.05 0.74,6.08 -7.22,7.01 -6.88,1.47 m 28.69,-8.22 c -0.22,17.05 5.59,16.94 10,-0.05 l -0.54,13.85 m 13.32,1.51 2.46,-8.06 c 2.59,-16.9 16,-5.46 -1.33,-0.74 4.9,-2.1 4.51,5.85 3.62,7.22 m 64.76,-24.19 c -18.99,-7.36 -18.8,8.9 -5.28,8.61 6.79,2.72 7.83,22.63 -8.13,13.51 m 35.93,-9.58 c -9.36,-2.61 -8.23,18.85 0.93,9.76 m 17.79,-3.99 c -0.19,-12.87 8.88,-10.9 8.81,-0.16 1.32,7.82 -7.48,5.18 -6.9,0.11 m 21.22,6.32 0.69,-6.95 c 1.16,-16.09 14.87,-6.35 -0.28,-1.06 2.33,-2.31 5.72,5.97 6.25,7.01 m 24.15,-15.37 q -4.12,12.87 -2.49,10.89 2.45,0.87 6.25,-0.43 m -6.37,-10.1 5.12,-0.27 m -7.36,6.04 6.95,-0.62 m 42.05,10.05 1.25,-8.96 c 2.21,-5.25 1.66,-4.98 3.19,-0.21 -0.42,9.77 1.13,14.32 2.59,11.96 m 0.21,-7.88 -6.42,0.3 m 24.16,6.68 0.83,-12.32 c 2.73,16.18 2.96,11.15 5.49,-0.43 m 22.09,2.15 -0.65,11.54 c 11.79,-3.06 12.97,-9.17 -0.34,-14.74 m 68.57,-10.33 c -18.82,-8.08 -17.94,7.72 -7.28,10.66 8.52,2.03 7.17,23.75 -7.93,12.91 m 31.74,-15.18 q -4.39,14.87 -2.9,11.57 3.15,0.47 6.3,-0.71 m -5.61,-9.59 6.85,-0.76 m -8.34,8.73 6.31,-0.29 m 16.09,-8.33 c 2.85,1.21 2.11,9.76 4.33,12.95 2.18,-3.83 4.63,-13.94 6.78,-14.24 m 17.91,-0.89 q -4.8,13.86 -2.37,11.23 2.96,1.66 6.68,-1.03 m -4.69,-10.62 6.07,-0.27 m -7.11,6.25 5.62,0.26 m 16.26,10.75 3.12,-11.99 c 2.84,16 3.53,11.94 7.87,-1.37 m 40.04,-16.34 c -0.64,14.88 10.64,16.11 10.28,0.81 l -1.83,22.33 c 0.43,1.24 -7.24,3.09 -7.13,-1.79 m 25.49,-7.82 q -3.72,13.67 -2.48,13.32 1.2,2.13 8.98,-0.66 m -4.04,-10.22 6.57,-1.74 m -7.29,6.95 6.03,-1.43 m 9.63,9.96 1.97,-11.16 c 2.65,-5.43 2.02,-5.48 2.31,-1.12 1.21,8.55 0.84,13.47 1.24,11.53 m 0.23,-7.51 -5.08,1.03 m 24.18,7.86 2.79,-6.89 c 2.41,-17.96 17.05,-4.64 -0.35,1.42 2.71,-1.29 4.67,5.17 4.14,7.38 m 37.99,-16.43 c -9.37,-2.49 -10.44,3.45 -1.89,5.15 4.46,-0.11 4.69,11.66 -5.62,6.64 m 40.88,0.83 5.22,-20.24 c 4.11,-11.19 4.39,-10.05 5.54,0.07 1.14,19.79 1.04,25.6 3.48,21.56 m -3.44,-16.35 -9.52,2.51 m 37.05,1.14 c -3.12,-0.58 -5.44,5.54 -4.2,12.22 2.01,1.44 4.81,1.46 8.48,-3.99 -0.09,-2.27 -0.52,-0.96 -0.69,-1.52 m 12.8,0.31 c 0.3,-11.68 9.42,-11.08 6.44,-0.36 1.43,6.4 -6.95,5.81 -6.31,0.15 m 20.7,3.61 c 3.67,-3.89 3.09,1.85 1.22,-0.54 m 4.06,0.84 c 3.71,-2.76 1.99,3.54 0.23,0.19 m 2.47,1.68 c 1.63,-1.65 1.9,2.03 1.33,0.79"
       id="path4260"
       inkscape:connector-curvature="0" />
    <path
       d="m 73.59,329.24 3.55,-26.36 m -2.44,3.94 12.22,-2.81 m -14.53,14.6 11.77,-2.63 m 10.38,9.61 c -0.92,-12.41 8.6,-12.53 6.25,0.33 -0.15,7.7 -7.77,6.54 -8.91,-0.01 m 26.94,-8.6 c 1.11,15.22 5.38,15.94 8.15,-1.2 l -2.85,15.19 m 22.19,-1.58 2.29,-7.01 c 0.72,-18.6 15.85,-4.52 0.44,0.33 2.66,-3.74 4.46,4.6 6.2,7 m 58.55,-23.79 c -17.08,-6.29 -18.4,9.27 -7.4,10.99 7.18,2.28 7.56,22.52 -8.74,12.92 m 38.59,-9.5 c -9.55,-2.56 -9.6,18.56 2.42,7.18 m 14.79,-1.58 c -1.12,-11.86 11.26,-11.38 6.18,0.12 1.48,7.93 -7.22,7.31 -6.14,-0.46 m 27.13,4.57 0.09,-6.36 c 2.93,-16.65 15.6,-5.74 0.6,-0.06 3.04,-2.6 5.82,6.48 6.17,6.5 m 19.25,-13.2 q -4.47,14.75 -3.3,11.61 1.12,0.33 8.92,-1.14 m -5.08,-11.51 7.76,-2.13 m -7.54,6.21 6.75,-0.55 m 38.52,12.21 1.86,-11.44 c 2.35,-4.88 1.85,-5.92 3.39,-0.94 1.23,9.05 1.38,11.66 2.07,11.65 m -0.21,-7.07 -4.04,0.65 m 23.47,4.97 2.36,-13.69 c 3.87,16.18 4.68,11.21 7.2,-0.03 m 16.96,4.72 -1.09,13.82 c 11.22,-3.67 13.26,-8.31 0.51,-15.14 m 69.64,-12.84 c -16.54,-7.13 -18.67,7.39 -6.37,10.33 7.35,1.9 8.13,22.23 -9.9,11.83 m 30.91,-13.98 q -5.34,14.88 -1.85,12.34 1.82,-0.27 7.03,-2.3 m -5.31,-12.27 6.14,0.36 m -8.44,8.47 7.89,-1.26 m 14.94,-2.75 c 1.38,0.24 2.98,9.67 3.56,13.3 3.39,-4.19 3.14,-14.27 6.28,-13.95 m 20.12,-1.89 q -5.36,14.59 -2.84,11.72 0.58,0.83 7.12,0.3 m -6.99,-12.19 6.82,-0.55 m -8.17,8.73 6.78,-2.04 m 17.36,11.13 1.76,-12.17 c 1.01,13.83 3.13,11.18 7.25,-1.95 m 43.32,-14.38 c -1.42,15.58 9.77,14.15 10.69,2.1 l -1.99,22.84 c -1.46,2.06 -7.44,1.69 -5.88,-3.68 m 19.23,-8.26 q -5.05,14.82 -1.21,11.14 2.1,-0.07 8.23,0.24 m -4.46,-9.74 7.88,-0.26 m -7.29,8.71 7.29,-0.13 m 10.01,3.65 2.55,-10.08 c 2.18,-4.37 2.96,-4.92 3.31,0.43 -0.03,9.3 1.53,11.82 1.12,11.35 m 0.26,-9.28 -5.95,1.1 m 23.28,6.28 2.44,-8.07 c 0.14,-16.7 14.56,-4.69 -0.42,-0.94 2.05,-2.8 3.95,3.53 5.41,6.51 m 37.85,-9.55 c -8.25,-3.98 -9.21,5.22 -2.4,4.07 4.98,2.14 4.23,12.19 -3.13,6.11 m 38.18,2.12 2.52,-20.21 c 2.29,-9.86 4.32,-10.98 5.98,0.3 2.09,20.67 1.37,26.95 5.47,19.53 m -1.77,-16.2 -11.1,2.16 m 39.2,4.51 c -4.47,-0.95 -7.68,3.15 -5.98,10.15 1.98,2.35 5.92,1.29 6.79,-3.33 -1.73,-1.83 -2.09,-2.07 -2.3,-1.92 m 14.13,0.12 c -1.33,-11.42 9.49,-12.45 7.99,-1.21 0.8,5.68 -8.68,5.07 -8.47,0.69 m 20.69,4.54 c 2.43,-3.61 3.36,3.63 -0.98,-1.44 m 7.11,2.76 c 3.59,-1.9 3.2,1.59 1.4,1.06 m 3.14,-1.62 c 2.39,-4.49 3.93,2.09 0.68,-1.44"
       id="path4262"
       inkscape:connector-curvature="0" />
    <text
       x="50"
       y="400"
       font-size="14.5"
       id="text4264"
       style="font-size:14.5px;font-family:Helvetica, Arial, Sans;fill:#000000;stroke:none">2. The upper-left corner of the text is placed [x, y]. So text with x = '100' and y = '450' is positioned like:</text>
    <rect
       x="100"
       y="450"
       width="430"
       height="35"
       id="rect4266"
       style="fill:#d3d3d3;stroke:none" />
    <circle
       cx="100"
       cy="450"
       r="3"
       id="circle4268"
       style="fill:#000000;stroke:none" />
    <text
       x="95"
       y="445"
       font-size="11.5"
       id="text4270"
       style="font-size:11.5px;font-family:Helvetica, Arial, Sans;text-anchor:end;fill:#000000;stroke:none">(100, 450)</text>
    <path
       d="m 106.01,478.8 3.52,-24.82 m -10.12,-0.05 19.24,-2.7 m 8.32,29.78 1.39,-13.51 m 5.19,13.13 2.45,-12.97 m -8.1,6.07 7.01,1.47 m 17.12,4.95 2.01,-12.78 m 28.3,0.65 c -7.98,-3.62 -7.9,4.58 -1.62,6.05 4.3,1.52 3.42,11.96 -5.2,7.2 m 41.82,-0.79 2.27,-13.65 m 31.85,1.86 c -9.42,-3.49 -8.15,4.66 -4.03,5.99 4.71,2.5 3.68,10.62 -5.19,6.48 m 49.4,0 1.47,-10.53 m -4.64,1.22 9.57,-1.67 m 13.47,11.34 1.96,-12.48 m 4.9,14.53 2.67,-13.01 m -7.27,5.95 8.02,1.5 m 17.49,-12.14 q -3.86,13.62 -2.81,12.93 0.91,2.39 7.45,0.28 m -4.09,-10.49 6.09,-1.96 m -8.71,8.26 6.76,-2.19 m 42.19,6.98 4.52,-19.08 a 9.22,6.32 139.4 1 1 -2.48,7.16 m 26.69,0.72 q -5.32,14.6 -1.2,13.69 1.76,0.77 8.26,-2.34 m 11.85,0.86 3.12,-11.26 c 2.36,-5.39 1.92,-4.23 3.27,-0.63 0.54,11.2 -0.39,13.16 1.03,9.48 m -2.26,-7.97 -4.47,2.57 m 39.02,-2.57 c -8.82,-3.72 -9.67,16.55 1.98,7.24 m 18.66,-12.84 q -4.22,14.14 -2.29,12.18 1.13,1.99 6.59,-2.27 m -6.52,-12.03 7.11,-1.25 m -9.43,6.96 6.97,-1.54 m 24.23,-15.84 -6.16,18.87 m -1.15,5.95 c 2.07,-1.88 2.99,1.65 0.89,0.52"
       id="path4272"
       inkscape:connector-curvature="0" />
    <text
       x="50"
       y="550"
       font-size="14.5"
       id="text4274"
       style="font-size:14.5px;font-family:Helvetica, Arial, Sans;fill:#000000;stroke:none">3. Unfortunately, there is no text-size attribute yet. This leaves us with text 35px in height.</text>
    <rect
       x="100"
       y="600"
       width="550"
       height="35"
       id="rect4276"
       style="fill:#d3d3d3;stroke:none" />
    <circle
       cx="100"
       cy="600"
       r="3"
       id="circle4278"
       style="fill:#000000;stroke:none" />
    <text
       x="95"
       y="595"
       font-size="11.5"
       id="text4280"
       style="font-size:11.5px;font-family:Helvetica, Arial, Sans;text-anchor:end;fill:#000000;stroke:none">(0, 0)</text>
    <circle
       cx="100"
       cy="635"
       r="3"
       id="circle4282"
       style="fill:#000000;stroke:none" />
    <text
       x="95"
       y="640"
       font-size="11.5"
       id="text4284"
       style="font-size:11.5px;font-family:Helvetica, Arial, Sans;text-anchor:end;fill:#000000;stroke:none">(0, 35)</text>
    <path
       d="m 106.46,629.61 0.91,-11.33 m -4.49,-0.2 8.16,-2.23 m 13.38,16.17 1.6,-13.88 m 5.68,13.51 2.26,-11.74 m -9.42,4.17 8.36,-0.93 m 18.48,7.91 0.94,-11.54 m 30.9,-0.76 c -9.24,-2.16 -9.63,3.57 -4.18,3.55 3.69,1.4 4.54,12.79 -3.39,6.1 m 43.62,3.81 0.8,-14.01 m 31.43,-1.29 c -9.47,-4.35 -9.08,4.33 -2.48,4.19 2.58,2.13 5.35,11 -4.56,5.2 m 42.31,-0.71 5.48,-25.49 a 9.1480216,5.613817 179.27 1 1 2.93,11.06 10.34,7.72 -170.3 1 1 -7.24,12.26 m 28.97,7.13 5.14,-25.1 m 22.39,-1.79 c -6.56,-2.75 -12.61,9.76 -9.33,21.28 6.07,0.63 11.82,2.86 13.67,-6.86 -0.54,-1.62 -2.81,-2.41 -5.12,-0.25 m 45.82,12.01 2.41,-12.15 m -5.03,-0.02 8.32,-1.11 m 18.94,-1.83 q -4.77,12.29 -1.29,12.61 0.87,0.33 6.28,-1.29 m -5.87,-11.69 6.86,0.14 m -8.27,7.34 7.73,-0.35 m 14.25,-4.29 c 3.76,1.74 5.53,5.37 6.54,12.58 m -6.47,-1.5 5.69,-15.43 m 24.26,17.9 3.02,-11.05 m -3.47,1.73 9.94,-2.23 m 7.13,9.87 -2.32,7.8 m 36.06,-4.86 2.47,-8.72 c 0.56,-17.59 14.89,-4.23 0.95,-0.75 2.18,-3.24 3.8,6.13 4.39,7.24 m 16.66,-0.2 3.05,-13.2 m 25.13,4.4 c -1.92,-2.02 -7.98,5.85 -4.29,12.3 1.74,0.47 4.66,2.1 6.41,-3.13 0.2,-2.1 -1.11,-1.36 -3.36,-0.86 m 15.36,3.38 0.88,-13.37 m 5.35,13.73 2.17,-12.32 m -10,3.92 8.12,-0.45 m 23.58,7.64 1.31,-11.43 m -4.42,-0.61 9.23,-1.9 m 13.56,-7.36 c 1.28,-19.04 20.7,-10.92 -0.58,12.77 m 1.38,6.01 c 2.4,-1.63 3.73,3.83 -1.17,0.04"
       id="path4286"
       inkscape:connector-curvature="0" />
    <circle
       cx="650"
       cy="600"
       r="3"
       id="circle4288"
       style="fill:#000000;stroke:none" />
    <text
       x="655"
       y="595"
       font-size="11.5"
       id="text4290"
       style="font-size:11.5px;font-family:Helvetica, Arial, Sans;text-anchor:start;fill:#000000;stroke:none">(550, 0)</text>
    <circle
       cx="650"
       cy="635"
       r="3"
       id="circle4292"
       style="fill:#000000;stroke:none" />
    <text
       x="655"
       y="640"
       font-size="11.5"
       id="text4294"
       style="font-size:11.5px;font-family:Helvetica, Arial, Sans;text-anchor:start;fill:#000000;stroke:none">(550, 35)</text>
  </g>
</svg>
